<?xml version="1.0" standalone="no"?>
<!DOCTYPE svg PUBLIC "-//W3C//DTD SVG 20010904//EN"
 "http://www.w3.org/TR/2001/REC-SVG-20010904/DTD/svg10.dtd">
<svg version="1.0" xmlns="http://www.w3.org/2000/svg"
 width="128.000000pt" height="128.000000pt" viewBox="0 0 128.000000 128.000000"
 preserveAspectRatio="xMidYMid meet">
<metadata>
Created by potrace 1.14, written by Peter Selinger 2001-2017
</metadata>
<g transform="translate(0.000000,128.000000) scale(0.100000,-0.100000)"
fill="#000000" stroke="none">
<path d="M162 1134 c-22 -15 -22 -20 -22 -223 0 -189 2 -209 18 -224 16 -15
47 -17 220 -17 184 0 204 2 221 19 17 17 18 36 17 224 -1 194 -2 207 -21 221
-30 23 -401 23 -433 0z m376 -67 c19 -13 17 -300 -3 -317 -21 -17 -291 -20
-314 -4 -13 10 -15 38 -16 158 -1 81 3 152 7 159 14 23 290 26 326 4z"/>
<path d="M694 1126 c-18 -13 -19 -29 -20 -222 -1 -189 1 -209 18 -226 16 -16
37 -18 222 -18 173 0 207 2 220 16 14 13 16 48 16 224 0 204 0 209 -22 224
-31 22 -404 24 -434 2z"/>
<path d="M156 594 c-14 -13 -16 -48 -16 -224 0 -204 0 -209 22 -224 31 -22
404 -24 434 -2 18 13 19 28 19 226 0 198 -1 213 -19 226 -30 22 -418 20 -440
-2z"/>
<path d="M694 586 c-18 -13 -19 -29 -20 -213 -2 -191 3 -227 30 -245 6 -4 99
-7 207 -8 159 0 199 3 217 16 21 15 22 20 22 224 0 176 -2 211 -16 224 -22 22
-410 24 -440 2z m379 -65 c14 -14 18 -287 5 -313 -8 -16 -26 -18 -162 -18
-119 0 -156 3 -165 14 -8 9 -11 61 -9 162 3 139 4 149 24 159 28 14 293 10
307 -4z"/>
</g>
</svg>
